<?xml version="1.0" encoding="utf-8"?>
<!-- Generator: Adobe Illustrator 15.0.0, SVG Export Plug-In . SVG Version: 6.00 Build 0)  -->
<!DOCTYPE svg PUBLIC "-//W3C//DTD SVG 1.1//EN" "http://www.w3.org/Graphics/SVG/1.1/DTD/svg11.dtd">
<svg version="1.1" id="Layer_1" xmlns="http://www.w3.org/2000/svg" xmlns:xlink="http://www.w3.org/1999/xlink" x="0px" y="0px"
	 width="141.732px" height="283.464px" viewBox="0 0 141.732 283.464" enable-background="new 0 0 141.732 283.464"
	 xml:space="preserve">
<image overflow="visible" enable-background="new    " width="98" height="300" id="AFH009N02A0::" xlink:href="module/design_bouquet/svg/AE238FCC.png"  transform="matrix(0.4098 0.0696 -0.0696 0.4098 75.5085 72.9751)">
</image>
<image overflow="visible" enable-background="new    " width="98" height="300" id="AMCSL000200::" xlink:href="module/design_bouquet/svg/AE238FCD.png"  transform="matrix(0.4074 0.0825 -0.0825 0.4074 75.6384 105.6289)">
</image>
<image overflow="visible" enable-background="new    " width="146" height="300" id="material3::" xlink:href="module/design_bouquet/svg/AE238FCB.png"  transform="matrix(0.5751 -0.0358 0.0358 0.5751 15.4133 29.7666)">
</image>
<image overflow="visible" enable-background="new    " width="103" height="300" id="AFH009N02A0::" xlink:href="module/design_bouquet/svg/AE238FD4.png"  transform="matrix(0.4957 -0.0766 0.0766 0.4957 17.2664 79.6748)">
</image>
<image overflow="visible" enable-background="new    " width="98" height="300" id="AMCSL000200::" xlink:href="module/design_bouquet/svg/AE238FD7.png"  transform="matrix(0.415 0.024 -0.024 0.415 52.3103 131.8599)">
</image>
<image overflow="visible" enable-background="new    " width="98" height="300" id="AFH009N02A0::" xlink:href="module/design_bouquet/svg/AE238FD5.png"  transform="matrix(0.4407 -0.012 0.012 0.4407 44.4343 98.7188)">
</image>
<g id="AFQ27406000::">
	<g>
		<g>
			<g>
				<g>
					<defs>
						<path id="SVGID_1_" d="M15.709,131.917l3.848,36.92L65.83,249.3l15.213-5.973c0,0-25.854-79.084-25.009-80.834
							c0.847-1.748,11.786-16.076,11.077-19.6c-0.709-3.52-6.038-18.358-8.334-20.042c-2.296-1.683-17.494-8.471-18.513-8.202
							c-1.021,0.27-19.561,5.434-19.561,5.434L15.709,131.917z"/>
					</defs>
					<clipPath id="SVGID_2_">
						<use xlink:href="#SVGID_1_"  overflow="visible"/>
					</clipPath>
					<g transform="matrix(1 1.280975e-009 -1.280975e-009 1 -1.189161e-006 -3.911581e-006)" clip-path="url(#SVGID_2_)">
						
							<image overflow="visible" enable-background="new    " width="98" height="300" xlink:href="module/design_bouquet/svg/AE238FDB.png"  transform="matrix(0.5557 -0.168 0.168 0.5557 3.696 115.1733)">
						</image>
					</g>
				</g>
			</g>
		</g>
	</g>
	<circle id="origin" fill="#7BFF3F" cx="73.032" cy="246.9" r="3.5"/>
</g>
<image overflow="visible" enable-background="new    " width="100" height="100" id="AMCSL000200::" xlink:href="module/design_bouquet/svg/AE238FDC.png"  transform="matrix(-0.0549 -0.1251 0.1251 -0.0549 50.2761 234.3306)">
</image>
<image overflow="visible" enable-background="new    " width="100" height="100" id="material9::" xlink:href="module/design_bouquet/svg/AE238FDF.png"  transform="matrix(0.0329 0.1326 -0.1326 0.0329 88.0613 215.3198)">
</image>
<g id="material10::">
	<g>
		<g>
			<g>
				<g>
					<g>
						<defs>
							<circle id="SVGID_3_" cx="71.641" cy="199.879" r="12.038"/>
						</defs>
						<clipPath id="SVGID_4_">
							<use xlink:href="#SVGID_3_"  overflow="visible"/>
						</clipPath>
						
							<g transform="matrix(1 -2.125210e-009 2.125210e-009 1 -2.471988e-006 -7.942137e-006)" clip-path="url(#SVGID_4_)" enable-background="new    ">
							
								<image overflow="visible" enable-background="new    " width="527" height="870" xlink:href="module/design_bouquet/svg/2B23C8DB.png"  transform="matrix(0.0609 0.0049 -0.0049 0.0609 56.3708 180.7163)">
							</image>
						</g>
					</g>
				</g>
			</g>
		</g>
	</g>
</g>
<g id="material11::">
	<g>
		<g>
			<g>
				<g>
					<g>
						<defs>
							<path id="SVGID_5_" d="M64.745,198.769l-9.822,18.902c0,0,10.059,20.231,11.095,19.201
								c1.033-1.033,15.608-11.854,15.608-11.854s10.632-1.922,11.253-2.819c0.624-0.896,3.526-4.966,2.979-6.275
								c-0.549-1.312-3.031-4.975-3.031-4.975l2.496-8.763l-11.106-6.433l-8.073,2.338l-4.979,5.445L64.745,198.769z"/>
						</defs>
						<clipPath id="SVGID_6_">
							<use xlink:href="#SVGID_5_"  overflow="visible"/>
						</clipPath>
						<g clip-path="url(#SVGID_6_)">
							
								<image overflow="visible" enable-background="new    " width="197" height="472" xlink:href="module/design_bouquet/svg/2B23C8D9.png"  transform="matrix(0.1065 0.0642 -0.0642 0.1065 76.5671 193.5601)">
							</image>
							
								<image overflow="visible" enable-background="new    " width="197" height="472" xlink:href="module/design_bouquet/svg/2B23C8DF.png"  transform="matrix(0.0814 0.0761 -0.085 0.0908 81.0759 205.4478)">
							</image>
							
								<image overflow="visible" enable-background="new    " width="197" height="472" xlink:href="module/design_bouquet/svg/2B23C8DA.png"  transform="matrix(0.116 0.045 -0.045 0.116 63.8674 202.2593)">
							</image>
						</g>
					</g>
				</g>
			</g>
		</g>
	</g>
</g>
<g id="material12::">
	<g>
		<g>
			<g>
				<g>
					<g>
						<defs>
							<path id="SVGID_7_" d="M54.955,223.835c0,0-2.062,0.846,4.875,1.311c6.942,0.471,21.946,1.312,21.291-1.592
								c0,0,3.472,0.283,3.376,1.875c-0.093,1.594-4.405,28.605-4.876,28.889c-0.47,0.281-21.479,0.094-21.479,0.094
								s-5.438-24.197-5.438-25.418c0-1.219,0.094-6.283,0.094-6.283L54.955,223.835z"/>
						</defs>
						<clipPath id="SVGID_8_">
							<use xlink:href="#SVGID_7_"  overflow="visible"/>
						</clipPath>
						<g transform="matrix(1 0 0 1 2.614975e-006 -6.704323e-006)" clip-path="url(#SVGID_8_)" enable-background="new    ">
							
								<image overflow="visible" enable-background="new    " width="516" height="516" xlink:href="module/design_bouquet/svg/2B23C8C5.png"  transform="matrix(0.0603 0 0 0.0603 52.8113 223.022)">
							</image>
						</g>
					</g>
				</g>
			</g>
		</g>
	</g>
</g>
<g id="material13::">
	<g>
		<g>
			<g>
				<g>
					<g>
						<defs>
							<circle id="SVGID_9_" cx="56.545" cy="210.693" r="12.039"/>
						</defs>
						<clipPath id="SVGID_10_">
							<use xlink:href="#SVGID_9_"  overflow="visible"/>
						</clipPath>
						
							<g transform="matrix(1 -1.178467e-008 1.178467e-008 1 -3.066414e-006 -4.386426e-006)" clip-path="url(#SVGID_10_)" enable-background="new    ">
							
								<image overflow="visible" enable-background="new    " width="527" height="870" xlink:href="module/design_bouquet/svg/2B23C8C6.png"  transform="matrix(0.0562 -0.0242 0.0242 0.0562 34.0876 200.8931)">
							</image>
						</g>
					</g>
				</g>
			</g>
		</g>
	</g>
</g>
<image overflow="visible" enable-background="new    " width="100" height="100" id="material14::" xlink:href="module/design_bouquet/svg/2B23C8C7.png"  transform="matrix(0.0802 0.1106 -0.1106 0.0802 78.9246 212.1646)">
</image>
<image overflow="visible" enable-background="new    " width="100" height="100" id="material15::" xlink:href="module/design_bouquet/svg/2B23C8C9.png"  transform="matrix(0.0649 -0.1202 0.1202 0.0649 46.2546 223.8442)">
</image>
<image overflow="visible" enable-background="new    " width="100" height="100" id="material16::" xlink:href="module/design_bouquet/svg/2B23C8CB.png"  transform="matrix(-0.1364 -0.0074 -0.0074 0.1364 78.6287 212.7554)">
</image>
<image overflow="visible" enable-background="new    " width="200" height="200" id="material17::" xlink:href="module/design_bouquet/svg/2B23C8CE.png"  transform="matrix(0.1144 -0.0101 0.0101 0.1144 51.554 207.8306)">
</image>
<image overflow="visible" enable-background="new    " width="100" height="100" id="material18::" xlink:href="module/design_bouquet/svg/2B23C8E2.png"  transform="matrix(0.1611 -0.0553 0.0553 0.1611 37.9988 161.2466)">
</image>
<image overflow="visible" enable-background="new    " width="100" height="100" id="material19::" xlink:href="module/design_bouquet/svg/2B23C8E1.png"  transform="matrix(0.1702 -0.0051 0.0051 0.1702 57.7571 136.6353)">
</image>
</svg>
