<?xml version="1.0" encoding="utf-8"?>
<!-- Generator: Adobe Illustrator 15.0.0, SVG Export Plug-In . SVG Version: 6.00 Build 0)  -->
<!DOCTYPE svg PUBLIC "-//W3C//DTD SVG 1.1//EN" "http://www.w3.org/Graphics/SVG/1.1/DTD/svg11.dtd">
<svg version="1.1" id="Layer_1" xmlns="http://www.w3.org/2000/svg" xmlns:xlink="http://www.w3.org/1999/xlink" x="0px" y="0px"
	 width="157.543px" height="331.503px" viewBox="0 2.895 157.543 331.503" enable-background="new 0 2.895 157.543 331.503"
	 xml:space="preserve">
<g id="AFA07068000::">
	
		<image overflow="visible" width="150" height="481" xlink:href="module/design_bouquet/svg/AFA07068000.png"  transform="matrix(0.5145 -0.0896 0.0896 0.5145 -4.9175 48.4761)">
	</image>
	<circle id="origin_8_" fill="#7BFF3F" cx="78.893" cy="288.571" r="1.917"/>
</g>
<g id="ALH011M38B0::_1_">
	
		<image overflow="visible" enable-background="new    " width="132" height="441" xlink:href="module/design_bouquet/svg/1.png"  transform="matrix(0.5375 0.1058 -0.1058 0.5375 86.5957 29.668)">
	</image>
	<circle id="origin" fill="#7BFF3F" cx="83.259" cy="274.147" r="1.917"/>
</g>
<g id="AFA07889000::">
	
		<image overflow="visible" width="191" height="479" id="_x3C_Linked_File_x3E_" xlink:href="module/design_bouquet/svg/AFA07889000.png"  transform="matrix(0.5628 0.0024 -0.0024 0.5628 28.2378 2.895)">
	</image>
	<circle id="origin_2_" fill="#7BFF3F" cx="78.825" cy="271.441" r="1.782"/>
</g>
<g id="AFH018N22A0::_3_">
	
		<image overflow="visible" enable-background="new    " width="104" height="95" xlink:href="module/design_bouquet/svg/2.png"  transform="matrix(-0.5344 -0.1204 -0.1204 0.5344 78.6895 276.2573)">
	</image>
	<circle id="origin_6_" fill="#7BFF3F" cx="66.291" cy="276.622" r="1.917"/>
</g>
<g id="AFH018N22A0::_2_">
	
		<image overflow="visible" enable-background="new    " width="104" height="95" xlink:href="module/design_bouquet/svg/2.png"  transform="matrix(0.532 -0.1306 0.1306 0.532 75.0723 276.2778)">
	</image>
	<circle id="origin_5_" fill="#7BFF3F" cx="87.477" cy="276.404" r="1.917"/>
</g>
<g id="ALQ71460000::">
	
		<image overflow="visible" enable-background="new    " width="130" height="141" xlink:href="module/design_bouquet/svg/4.png"  transform="matrix(0.5478 0 0 0.5478 40.9194 213.8862)">
	</image>
	<g>
		
			<image overflow="visible" enable-background="new    " width="96" height="92" xlink:href="module/design_bouquet/svg/3.png"  transform="matrix(0.5478 0 0 0.5478 50.5972 176.7163)">
		</image>
	</g>
	<circle id="origin_7_" fill="#7BFF3F" cx="77.227" cy="289.904" r="1.917"/>
</g>
<g id="AFH018N22A0::_1_">
	
		<image overflow="visible" enable-background="new    " width="104" height="95" xlink:href="module/design_bouquet/svg/2.png"  transform="matrix(-0.5478 0 0 0.5478 78.2207 282.3569)">
	</image>
	<circle id="origin_3_" fill="#7BFF3F" cx="66.205" cy="285.437" r="1.917"/>
</g>
<g id="AFH018N22A0::">
	
		<image overflow="visible" enable-background="new    " width="104" height="95" xlink:href="module/design_bouquet/svg/2.png"  transform="matrix(0.5478 0 0 0.5478 75.377 282.3569)">
	</image>
	<circle id="origin_4_" fill="#7BFF3F" cx="87.393" cy="285.437" r="1.917"/>
</g>
</svg>
